<svg xmlns="http://www.w3.org/2000/svg" width="18.855" height="24.753" viewBox="0 0 18.855 24.753">
  <g id="Group_175047" data-name="Group 175047" transform="translate(-61)">
    <path id="Path_63531" data-name="Path 63531" d="M212.264,231.351a.725.725,0,0,1-.282-1.394.992.992,0,0,1,1.066.322.725.725,0,0,0,1.009-1.042,2.848,2.848,0,0,0-1.068-.668v-.845a.725.725,0,1,0-1.45,0v.85q-.062.022-.123.047a2.176,2.176,0,0,0,.848,4.179.725.725,0,0,1,.248,1.407,1.114,1.114,0,0,1-1.19-.5.725.725,0,1,0-1.111.933,3.013,3.013,0,0,0,1.327.948v.843a.725.725,0,1,0,1.45,0v-.85l.019-.007a2.176,2.176,0,0,0-.745-4.22Z" transform="translate(-141.836 -216.026)" fill="#9f9f9f"/>
    <path id="Path_63532" data-name="Path 63532" d="M77.144,10.89a10.283,10.283,0,0,0-2.929-2.513,2.18,2.18,0,0,0-1.076-3.506l1.851-3.228A.726.726,0,0,0,74.563.586a14.874,14.874,0,0,0-8.271,0,.726.726,0,0,0-.427,1.057l1.851,3.228A2.179,2.179,0,0,0,66.64,8.377a10.283,10.283,0,0,0-2.929,2.513A11.894,11.894,0,0,0,61,18.226c0,5.274,4.208,6.527,9.427,6.527s9.427-1.255,9.427-6.527A11.894,11.894,0,0,0,77.144,10.89ZM67.6,1.751a13.456,13.456,0,0,1,5.657,0l-1.6,2.785a8.9,8.9,0,0,0-2.463,0Zm.474,4.529A7.5,7.5,0,0,1,71.9,6.047h0a7.655,7.655,0,0,1,.881.232.725.725,0,0,1-.148,1.41,7.3,7.3,0,0,0-4.407,0,.724.724,0,0,1-.153-1.409Zm2.355,17.032c-5.666,0-7.977-1.48-7.977-5.086a10.568,10.568,0,0,1,2.386-6.421,6.7,6.7,0,0,1,11.181,0A10.568,10.568,0,0,1,78.4,18.226C78.4,21.832,76.093,23.312,70.427,23.312Z" transform="translate(0 0)" fill="#9f9f9f"/>
  </g>
</svg>
