<svg id="trash_bold" data-name="trash/bold" xmlns="http://www.w3.org/2000/svg" width="25.263" height="25.263" viewBox="0 0 25.263 25.263">
  <g id="vuesax_bold_trash" data-name="vuesax/bold/trash">
    <g id="trash">
      <path id="Vector" d="M19.814,4.19c-1.695-.168-3.39-.295-5.095-.389V3.79l-.232-1.368C14.33,1.453,14.1,0,11.635,0H8.878C6.425,0,6.193,1.389,6.025,2.411L5.8,3.758c-.979.063-1.958.126-2.937.221L.72,4.19A.788.788,0,1,0,.867,5.758l2.147-.211a83.926,83.926,0,0,1,16.653.221h.084a.8.8,0,0,0,.789-.716A.807.807,0,0,0,19.814,4.19Z" transform="translate(2.365 1.316)" fill="#e90b0b"/>
      <path id="Vector-2" data-name="Vector" d="M15.581.411A1.331,1.331,0,0,0,14.623,0H1.318A1.313,1.313,0,0,0,.36.411,1.356,1.356,0,0,0,0,1.4L.655,12.2c.116,1.6.263,3.6,3.937,3.6H11.35c3.674,0,3.821-1.989,3.937-3.6l.653-10.79A1.365,1.365,0,0,0,15.581.411ZM9.718,10.526H6.213a.789.789,0,0,1,0-1.579H9.718a.789.789,0,0,1,0,1.579ZM10.6,6.316H5.339a.789.789,0,1,1,0-1.579H10.6a.789.789,0,1,1,0,1.579Z" transform="translate(4.661 8.158)" fill="#e90b0b"/>
      <path id="Vector-3" data-name="Vector" d="M0,0H25.263V25.263H0Z" transform="translate(25.263 25.263) rotate(180)" fill="none" opacity="0"/>
    </g>
  </g>
</svg>
