<svg id="Group_174593" data-name="Group 174593" xmlns="http://www.w3.org/2000/svg" width="15.832" height="15.832" viewBox="0 0 15.832 15.832">
  <g id="star_linear" data-name="star/linear" transform="translate(0 0)">
    <g id="vuesax_linear_star" data-name="vuesax/linear/star">
      <g id="star">
        <path id="Vector" d="M7.737.945,8.9,3.267a1.433,1.433,0,0,0,.937.693l2.1.35c1.346.224,1.662,1.2.693,2.164L11,8.109A1.432,1.432,0,0,0,10.653,9.3l.468,2.025c.369,1.6-.482,2.223-1.9,1.385L7.249,11.546a1.426,1.426,0,0,0-1.306,0L3.97,12.713c-1.412.838-2.269.211-1.9-1.385L2.539,9.3A1.432,1.432,0,0,0,2.2,8.109L.56,6.473C-.4,5.51-.093,4.533,1.253,4.309l2.1-.35a1.437,1.437,0,0,0,.93-.693L5.448.945C6.081-.315,7.11-.315,7.737.945Z" transform="translate(1.32 1.37)" fill="none" stroke="#ff9801" stroke-linecap="round" stroke-linejoin="round" stroke-width="1.5"/>
        <path id="Vector-2" data-name="Vector" d="M0,0H15.832V15.832H0Z" fill="none" opacity="0"/>
      </g>
    </g>
  </g>
  <path id="Path_63501" data-name="Path 63501" d="M-7241.148,2589.534l.333-1,2.4-.461,1.212-.3,1.316-2.094,1.018-1.555h.987s1.076,1.824,1.106,2,1.016,1.376.957,1.5,1.287.688,1.287.688l2.273.478a2.963,2.963,0,0,1,.329.748c-.03.12-.958,1.5-.958,1.5s-1.585,1.526-1.645,2a8.61,8.61,0,0,0,.418,1.855c0,.12.177,1.43.177,1.43l-.763.537-3.691-1.339-1.167.269-2.857,1.406-.673-.538s.33-2.423.33-2.543.343-1.526.343-1.526a9.968,9.968,0,0,0-1.3-1.077A16.447,16.447,0,0,1-7241.148,2589.534Z" transform="translate(7242.806 -2582.122)" fill="#ff9801" stroke="#ff9801" stroke-width="0.2"/>
</svg>
