<svg xmlns="http://www.w3.org/2000/svg" width="21.437" height="21.439" viewBox="0 0 21.437 21.439">
  <g id="Group_174040" data-name="Group 174040" transform="translate(-0.016 0.002)" opacity="0.58">
    <path id="Path_53502" data-name="Path 53502" d="M19.473,4.53a.179.179,0,0,0,0-.021c-.027-.038-.06-.071-.087-.109q-.3-.408-.636-.787-.091-.1-.185-.2-.345-.37-.725-.705c-.047-.041-.09-.084-.137-.125a10.734,10.734,0,0,0-2.033-1.372c-.029-.015-.06-.028-.09-.044a10.651,10.651,0,0,0-1-.443c-.077-.028-.146-.054-.219-.077Q13.91.479,13.444.357c-.092-.025-.184-.05-.277-.071-.306-.071-.613-.126-.926-.17C12.146.1,12.053.083,11.957.072a10.069,10.069,0,0,0-2.429,0c-.1.011-.189.03-.284.044-.313.044-.623.1-.926.17-.093.021-.185.047-.277.071q-.466.121-.919.286L6.9.719a10.645,10.645,0,0,0-1,.443c-.03.015-.06.028-.09.044a10.737,10.737,0,0,0-2.04,1.372c-.047.041-.09.083-.137.125a9.962,9.962,0,0,0-.725.705q-.094.1-.185.2-.337.378-.636.787c-.028.038-.06.07-.087.109A.174.174,0,0,0,2,4.53,10.653,10.653,0,0,0,2,16.905a.167.167,0,0,0,.009.021c.027.038.06.071.087.109q.3.408.636.787.091.1.185.2.346.369.725.705c.047.041.09.084.137.125A10.735,10.735,0,0,0,5.81,20.229c.029.015.06.028.09.044a10.652,10.652,0,0,0,1,.443c.077.028.146.054.219.077q.453.163.919.286c.092.025.184.05.277.071.306.071.613.126.926.17.095.014.188.032.284.044a10.069,10.069,0,0,0,2.429,0c.1-.011.189-.03.284-.044.313-.044.623-.1.926-.17.093-.021.185-.047.277-.071q.466-.121.919-.286l.219-.077a10.645,10.645,0,0,0,1-.443c.03-.015.06-.028.09-.044a10.737,10.737,0,0,0,2.033-1.372c.047-.041.09-.083.137-.125a9.751,9.751,0,0,0,.725-.705q.094-.1.185-.2.336-.378.636-.787c.028-.038.06-.07.087-.109a.174.174,0,0,0,.009-.021A10.653,10.653,0,0,0,19.473,4.53ZM18.6,5.979a9.113,9.113,0,0,1,1.292,3.973H15.3a14.292,14.292,0,0,0-.429-2.7A13.763,13.763,0,0,0,18.6,5.979ZM12.688,1.738c.043.01.084.024.127.034a8.242,8.242,0,0,1,.812.23c.041.014.08.03.12.044q.395.137.777.306l.133.064q.364.173.714.376l.153.093q.331.2.643.433c.054.039.107.077.16.119a6.988,6.988,0,0,1,.587.492c.049.044.1.088.148.134.2.186.383.383.564.587.023.027.047.051.07.077a12.847,12.847,0,0,1-3.267,1.049,19.475,19.475,0,0,0-2.062-4.091c.106.019.215.03.32.053ZM7.7,9.952A12.779,12.779,0,0,1,8.124,7.5a21.948,21.948,0,0,0,2.615.153A22,22,0,0,0,13.356,7.5a12.756,12.756,0,0,1,.419,2.455Zm6.072,1.532a12.779,12.779,0,0,1-.421,2.451,22.416,22.416,0,0,0-5.232,0A12.759,12.759,0,0,1,7.7,11.484h6.072ZM10.739,2.026a18.5,18.5,0,0,1,2.135,3.983,20.271,20.271,0,0,1-2.135.113,20.424,20.424,0,0,1-2.132-.114,18.644,18.644,0,0,1,2.132-3.982ZM3.854,4.65c.18-.2.368-.4.564-.587.048-.046.1-.09.148-.134q.283-.258.587-.492c.053-.041.106-.077.16-.119q.312-.23.643-.433l.153-.093q.348-.2.714-.376l.133-.064q.381-.172.777-.306c.04-.015.077-.031.12-.044.266-.089.536-.162.812-.23.043-.01.084-.024.128-.033.1-.023.214-.034.32-.053A19.476,19.476,0,0,0,7.05,5.778,12.847,12.847,0,0,1,3.783,4.728c.023-.027.047-.051.07-.078ZM2.879,5.979A13.761,13.761,0,0,0,6.6,7.249a14.292,14.292,0,0,0-.428,2.7H1.587A9.115,9.115,0,0,1,2.879,5.979Zm0,9.477a9.113,9.113,0,0,1-1.292-3.973H6.175a14.292,14.292,0,0,0,.429,2.7,13.76,13.76,0,0,0-3.725,1.27ZM8.791,19.7c-.043-.01-.084-.024-.127-.034a8.242,8.242,0,0,1-.812-.23c-.041-.014-.08-.03-.12-.044q-.395-.137-.777-.306l-.133-.064q-.364-.173-.714-.376l-.153-.093q-.331-.2-.643-.433c-.054-.039-.107-.077-.16-.119a6.988,6.988,0,0,1-.587-.492c-.049-.044-.1-.088-.148-.134-.2-.186-.383-.383-.564-.587-.023-.027-.047-.051-.07-.077a12.847,12.847,0,0,1,3.267-1.049A19.475,19.475,0,0,0,9.111,19.75c-.106-.019-.215-.03-.32-.053Zm1.948-.288A18.5,18.5,0,0,1,8.6,15.427a19.939,19.939,0,0,1,4.268,0h0A18.64,18.64,0,0,1,10.739,19.409Zm6.885-2.624c-.18.2-.368.4-.564.587-.048.046-.1.09-.148.134q-.283.258-.587.492-.079.061-.16.119-.312.23-.643.433l-.153.093q-.349.2-.714.376l-.133.064q-.381.172-.777.306c-.04.015-.077.031-.12.044-.266.089-.536.162-.812.23-.043.01-.084.024-.128.033-.1.023-.214.034-.32.053a19.473,19.473,0,0,0,2.062-4.091,12.846,12.846,0,0,1,3.267,1.049c-.022.026-.047.05-.07.077Zm.974-1.329a13.761,13.761,0,0,0-3.724-1.27,14.292,14.292,0,0,0,.428-2.7h4.588A9.115,9.115,0,0,1,18.6,15.456Z" transform="translate(0 0)" fill="#1f1b20"/>
  </g>
</svg>
