<svg id="profile_broken" data-name="profile/broken" xmlns="http://www.w3.org/2000/svg" width="18.047" height="18.047" viewBox="0 0 18.047 18.047">
  <g id="vuesax_broken_frame" data-name="vuesax/broken/frame">
    <g id="frame">
      <path id="Vector" d="M6.1,1.474a3.332,3.332,0,0,1-2.647,5.2,1.367,1.367,0,0,0-.248,0A3.315,3.315,0,0,1,.02,3.722,3.4,3.4,0,0,1,3.329,0" transform="translate(5.687 1.504)" fill="none" stroke="#a3a3a3" stroke-linecap="round" stroke-linejoin="round" stroke-width="1.2"/>
      <path id="Vector-2" data-name="Vector" d="M1.365,1.032a2.467,2.467,0,0,0,0,4.414,7.344,7.344,0,0,0,7.527,0,2.467,2.467,0,0,0,0-4.414A7.378,7.378,0,0,0,1.365,1.032Z" transform="translate(3.891 9.916)" fill="none" stroke="#a3a3a3" stroke-linecap="round" stroke-linejoin="round" stroke-width="1.2"/>
      <path id="Vector-3" data-name="Vector" d="M0,0H18.047V18.047H0Z" fill="none" opacity="0"/>
    </g>
  </g>
</svg>
