<svg xmlns="http://www.w3.org/2000/svg" width="24" height="18.1" viewBox="0 0 24 18.1">
  <g id="Group_174360" data-name="Group 174360" transform="translate(0 -3)">
    <path id="Path_69770" data-name="Path 69770" d="M20.8,16.3,18,15.7l-.1-.4a8.735,8.735,0,0,0,2.9-.9.5.5,0,0,0,0-.8s-1.3-1.1-1.3-4.8c0-3.3-.8-4.9-2.3-4.9H17a2.352,2.352,0,0,0-1.9-.7c-.2,0-.4.1-.4.3a.446.446,0,0,0,0,.5,2.848,2.848,0,0,1,0,3.5c-.2.2-.2.5,0,.6a2.155,2.155,0,0,1,.5,1.7L15,11.2a2.751,2.751,0,0,1-.8,1.5c-.1.1-.1.2-.2.3a4.714,4.714,0,0,1-.6,1.5.3.3,0,0,0,0,.4c.1.1.2.3.3.3l1.3.3a5.231,5.231,0,0,1,4,5.1.472.472,0,0,0,.5.5h4a.472.472,0,0,0,.5-.5A4.326,4.326,0,0,0,20.8,16.3Zm-6,0L12,15.7l-.2-.8a5.33,5.33,0,0,0,1.4-2.8,1.187,1.187,0,0,0,.8-1l.2-1.5a1.689,1.689,0,0,0-.3-1c-.1-.1-.3-.2-.4-.3L13.6,7l.2-.2a2.006,2.006,0,0,0,.1-2.5,3.309,3.309,0,0,0-3-1.3,5.113,5.113,0,0,0-2.8.7c-3.2.1-3.7,1.7-3.7,3.1,0,.3.1,1,.1,1.4-.1.1-.3.2-.4.4a1.689,1.689,0,0,0-.3,1L4,11a1.174,1.174,0,0,0,.9,1,5.263,5.263,0,0,0,1.3,2.7l-.2,1-2.8.7A4.1,4.1,0,0,0,0,20.5a.472.472,0,0,0,.5.5h17a.472.472,0,0,0,.5-.5,4.293,4.293,0,0,0-3.2-4.2Z" fill="#fff"/>
  </g>
</svg>
