<svg id="Group_174862" data-name="Group 174862" xmlns="http://www.w3.org/2000/svg" width="30" height="30" viewBox="0 0 30 30">
  <circle id="Ellipse_7807" data-name="Ellipse 7807" cx="15" cy="15" r="15" fill="#0066c9"/>
  <g id="vuesax_bold_send" data-name="vuesax/bold/send" transform="translate(7 7)">
    <g id="send" transform="translate(0 0)">
      <path id="Vector" d="M1.92,3.672,7.627.819C11.46-1.1,13.033.472,11.113,4.306l-.58,1.16a1.215,1.215,0,0,0,0,1.073l.58,1.153c1.92,3.833.353,5.407-3.487,3.487L1.92,8.326C-.64,7.046-.64,4.952,1.92,3.672ZM4.073,6.5h3.6a.5.5,0,1,0,0-1h-3.6a.5.5,0,0,0,0,1Z" transform="translate(2.033 2.001)" fill="#fff"/>
      <path id="Vector-2" data-name="Vector" d="M0,16H16V0H0Z" fill="none" opacity="0"/>
    </g>
  </g>
</svg>
